<svg xmlns="http://www.w3.org/2000/svg" width="24" height="27" fill="none" viewBox="0 0 24 27"><mask id="mask0_178_29628" width="21" height="23" x="1" y="4" maskUnits="userSpaceOnUse" style="mask-type:alpha"><path fill="#fff" d="M20.1248 4.00061H3.87483C2.83929 4.00061 1.99983 4.84008 1.99983 5.87561V24.6256C1.99983 25.6611 2.83929 26.5006 3.87483 26.5006H20.1248C21.1604 26.5006 21.9998 25.6611 21.9998 24.6256V5.87561C21.9998 4.84008 21.1604 4.00061 20.1248 4.00061Z"/></mask><g mask="url(#mask0_178_29628)"><g filter="url(#filter0_ii_178_29628)"><path fill="url(#paint0_linear_178_29628)" d="M20.1248 4.00061H3.87483C2.83929 4.00061 1.99983 4.84008 1.99983 5.87561V23.6256C1.99983 24.6611 2.83929 25.5006 3.87483 25.5006H20.1248C21.1604 25.5006 21.9998 24.6611 21.9998 23.6256V5.87561C21.9998 4.84008 21.1604 4.00061 20.1248 4.00061Z"/></g></g><g filter="url(#filter1_di_178_29628)"><path fill="#FFFEFE" fill-rule="evenodd" d="M13.8747 1.87549C14.6534 1.87549 15.3213 2.35019 15.6046 3.02601C15.6294 3.08496 15.6858 3.12552 15.7497 3.12549C16.7853 3.12549 17.6247 3.96495 17.6247 5.00049C17.6247 6.03602 16.7853 6.87549 15.7497 6.87549H8.24974C7.2142 6.87549 6.37474 6.03602 6.37474 5.00049C6.37474 3.96495 7.2142 3.12549 8.24974 3.12549C8.31366 3.12552 8.37011 3.08496 8.39483 3.02601C8.67819 2.35019 9.34603 1.87549 10.1247 1.87549H13.8747Z" clip-rule="evenodd"/></g><path fill="#fff" fill-opacity=".01" d="M17.9719 9H6.02754V20.9444H17.9719V9Z"/><g filter="url(#filter2_dii_178_29628)"><path fill="#fff" fill-rule="evenodd" d="M12.5335 11.6822C12.5335 11.1511 12.9641 10.7206 13.4951 10.7206H17.0843C17.6154 10.7206 18.0459 11.1511 18.0459 11.6822V15.2715C18.0459 15.8025 17.6154 16.233 17.0843 16.233C16.5533 16.233 16.1227 15.8025 16.1227 15.2715V12.6438H13.4951C12.9641 12.6438 12.5335 12.2133 12.5335 11.6822Z" clip-rule="evenodd"/><path fill="#fff" fill-rule="evenodd" d="M17.7488 10.9869C18.1327 11.3539 18.1464 11.9626 17.7795 12.3465L13.3481 16.9826C13.036 17.3092 12.5385 17.3744 12.1526 17.1393L9.93329 16.233L7.35673 18.8752C7.01826 19.2844 6.41212 19.3418 6.00289 19.0033C5.59365 18.6648 5.53629 18.0587 5.87476 17.6495L8.98186 14.3659C9.28641 13.9977 9.81516 13.9089 10.2232 14.1576L12.4926 15.0943L16.3892 11.0176C16.7562 10.6337 17.3649 10.62 17.7488 10.9869Z" clip-rule="evenodd"/></g><defs><filter id="filter0_ii_178_29628" width="20" height="24.714" x="2" y="1.858" color-interpolation-filters="sRGB" filterUnits="userSpaceOnUse"><feFlood flood-opacity="0" result="BackgroundImageFix"/><feBlend in="SourceGraphic" in2="BackgroundImageFix" mode="normal" result="shape"/><feColorMatrix in="SourceAlpha" result="hardAlpha" type="matrix" values="0 0 0 0 0 0 0 0 0 0 0 0 0 0 0 0 0 0 127 0"/><feOffset dy="-2.143"/><feGaussianBlur stdDeviation="1.071"/><feComposite in2="hardAlpha" k2="-1" k3="1" operator="arithmetic"/><feColorMatrix type="matrix" values="0 0 0 0 0.0788195 0 0 0 0 0.633708 0 0 0 0 0.945833 0 0 0 0.7 0"/><feBlend in2="shape" mode="normal" result="effect1_innerShadow_178_29628"/><feColorMatrix in="SourceAlpha" result="hardAlpha" type="matrix" values="0 0 0 0 0 0 0 0 0 0 0 0 0 0 0 0 0 0 127 0"/><feOffset dy="1.071"/><feGaussianBlur stdDeviation="1.071"/><feComposite in2="hardAlpha" k2="-1" k3="1" operator="arithmetic"/><feColorMatrix type="matrix" values="0 0 0 0 1 0 0 0 0 1 0 0 0 0 1 0 0 0 0.7 0"/><feBlend in2="effect1_innerShadow_178_29628" mode="normal" result="effect2_innerShadow_178_29628"/></filter><filter id="filter1_di_178_29628" width="15.536" height="9.286" x="4.232" y=".453" color-interpolation-filters="sRGB" filterUnits="userSpaceOnUse"><feFlood flood-opacity="0" result="BackgroundImageFix"/><feColorMatrix in="SourceAlpha" result="hardAlpha" type="matrix" values="0 0 0 0 0 0 0 0 0 0 0 0 0 0 0 0 0 0 127 0"/><feOffset dy=".72"/><feGaussianBlur stdDeviation="1.071"/><feColorMatrix type="matrix" values="0 0 0 0 0.373715 0 0 0 0 0.67555 0 0 0 0 0.954167 0 0 0 0.6 0"/><feBlend in2="BackgroundImageFix" mode="normal" result="effect1_dropShadow_178_29628"/><feBlend in="SourceGraphic" in2="effect1_dropShadow_178_29628" mode="normal" result="shape"/><feColorMatrix in="SourceAlpha" result="hardAlpha" type="matrix" values="0 0 0 0 0 0 0 0 0 0 0 0 0 0 0 0 0 0 127 0"/><feOffset dy="-.72"/><feGaussianBlur stdDeviation="1.071"/><feComposite in2="hardAlpha" k2="-1" k3="1" operator="arithmetic"/><feColorMatrix type="matrix" values="0 0 0 0 0.0178125 0 0 0 0 0.37905 0 0 0 0 0.7125 0 0 0 0.4 0"/><feBlend in2="shape" mode="normal" result="effect2_innerShadow_178_29628"/></filter><filter id="filter2_dii_178_29628" width="21.046" height="17.158" x="1.327" y="9.278" color-interpolation-filters="sRGB" filterUnits="userSpaceOnUse"><feFlood flood-opacity="0" result="BackgroundImageFix"/><feColorMatrix in="SourceAlpha" result="hardAlpha" type="matrix" values="0 0 0 0 0 0 0 0 0 0 0 0 0 0 0 0 0 0 127 0"/><feOffset dy="2.885"/><feGaussianBlur stdDeviation="2.164"/><feColorMatrix type="matrix" values="0 0 0 0 0 0 0 0 0 0.355333 0 0 0 0 0.683333 0 0 0 0.5 0"/><feBlend in2="BackgroundImageFix" mode="normal" result="effect1_dropShadow_178_29628"/><feBlend in="SourceGraphic" in2="effect1_dropShadow_178_29628" mode="normal" result="shape"/><feColorMatrix in="SourceAlpha" result="hardAlpha" type="matrix" values="0 0 0 0 0 0 0 0 0 0 0 0 0 0 0 0 0 0 127 0"/><feOffset dy="-1.154"/><feGaussianBlur stdDeviation=".721"/><feComposite in2="hardAlpha" k2="-1" k3="1" operator="arithmetic"/><feColorMatrix type="matrix" values="0 0 0 0 0 0 0 0 0 0.58 0 0 0 0 1 0 0 0 0.4 0"/><feBlend in2="shape" mode="normal" result="effect2_innerShadow_178_29628"/><feColorMatrix in="SourceAlpha" result="hardAlpha" type="matrix" values="0 0 0 0 0 0 0 0 0 0 0 0 0 0 0 0 0 0 127 0"/><feOffset dy="-.583"/><feGaussianBlur stdDeviation=".388"/><feComposite in2="hardAlpha" k2="-1" k3="1" operator="arithmetic"/><feColorMatrix type="matrix" values="0 0 0 0 0.879167 0 0 0 0 1 0 0 0 0 1 0 0 0 0.75 0"/><feBlend in2="effect2_innerShadow_178_29628" mode="normal" result="effect3_innerShadow_178_29628"/></filter><linearGradient id="paint0_linear_178_29628" x1="31.286" x2=".748" y1="-4.214" y2="26.29" gradientUnits="userSpaceOnUse"><stop stop-color="#24B5E3"/><stop offset=".533" stop-color="#56CCFF"/><stop offset="1" stop-color="#0BA7FF"/></linearGradient></defs></svg>