<svg xmlns="http://www.w3.org/2000/svg" width="55" height="58" fill="none" viewBox="0 0 55 58"><g filter="url(#filter0_ii_1053_46645)"><path fill="#7DA2FF" fill-rule="evenodd" d="M34.2234 16H34.1971H19.6665C17.4612 16 15.6665 17.7937 15.6665 19.9977V23.9953V26.6605V35.9883C15.6665 38.1923 17.4612 39.986 19.6665 39.986H35.6665C37.8718 39.986 39.6665 38.1923 39.6665 35.9883V26.6605V23.9953V21.2979L34.2234 16Z" clip-rule="evenodd"/></g><g filter="url(#filter1_di_1053_46645)"><path fill="#fff" d="M31.6884 25.1609H20.5815C20.0751 25.1609 19.6646 25.5712 19.6646 26.0773C19.6646 26.5833 20.0751 26.9936 20.5815 26.9936H31.6884C32.1948 26.9936 32.6052 26.5833 32.6052 26.0773C32.6052 25.5712 32.1948 25.1609 31.6884 25.1609Z"/></g><g filter="url(#filter2_di_1053_46645)"><path fill="#fff" d="M27.1313 21.5852H20.5226C20.0488 21.5852 19.6646 21.9691 19.6646 22.4427C19.6646 22.9163 20.0488 23.3001 20.5226 23.3001H27.1313C27.6052 23.3001 27.9893 22.9163 27.9893 22.4427C27.9893 21.9691 27.6052 21.5852 27.1313 21.5852Z"/></g><g filter="url(#filter3_di_1053_46645)"><path fill="#fff" d="M35.6691 30.6563C35.6691 29.9208 35.1558 29.3238 34.5259 29.3238H20.8078C20.1779 29.3238 19.6646 29.9208 19.6646 30.6563V33.6234C19.6646 34.4513 20.3362 35.1225 21.1646 35.1225H34.1691C34.9975 35.1225 35.6691 34.4513 35.6691 33.6234V30.6563Z"/></g><g filter="url(#filter4_f_1053_46645)"><path fill="#7CA0FD" d="M28.1665 39.986C34.5178 39.986 39.6665 38.8674 39.6665 37.4874C39.6665 36.1075 34.5178 34.9889 28.1665 34.9889C21.8152 34.9889 16.6665 36.1075 16.6665 37.4874C16.6665 38.8674 21.8152 39.986 28.1665 39.986Z"/></g><path fill="#B9CDFA" d="M36.2095 21.2979H39.6669L34.2095 15.986V19.2991C34.2095 20.403 35.1049 21.2979 36.2095 21.2979Z"/><defs><filter id="filter0_ii_1053_46645" width="24" height="30.105" x="15.666" y="9.881" color-interpolation-filters="sRGB" filterUnits="userSpaceOnUse"><feFlood flood-opacity="0" result="BackgroundImageFix"/><feBlend in="SourceGraphic" in2="BackgroundImageFix" mode="normal" result="shape"/><feColorMatrix in="SourceAlpha" result="hardAlpha" type="matrix" values="0 0 0 0 0 0 0 0 0 0 0 0 0 0 0 0 0 0 127 0"/><feOffset dy="-6.119"/><feGaussianBlur stdDeviation="3.824"/><feComposite in2="hardAlpha" k2="-1" k3="1" operator="arithmetic"/><feColorMatrix type="matrix" values="0 0 0 0 0.0716667 0 0 0 0 0.136167 0 0 0 0 0.716667 0 0 0 0.35 0"/><feBlend in2="shape" mode="normal" result="effect1_innerShadow_1053_46645"/><feColorMatrix in="SourceAlpha" result="hardAlpha" type="matrix" values="0 0 0 0 0 0 0 0 0 0 0 0 0 0 0 0 0 0 127 0"/><feOffset dy="-2.294"/><feGaussianBlur stdDeviation="1.53"/><feComposite in2="hardAlpha" k2="-1" k3="1" operator="arithmetic"/><feColorMatrix type="matrix" values="0 0 0 0 1 0 0 0 0 1 0 0 0 0 1 0 0 0 0.25 0"/><feBlend in2="effect1_innerShadow_1053_46645" mode="normal" result="effect2_innerShadow_1053_46645"/></filter><filter id="filter1_di_1053_46645" width="41.966" height="30.858" x="5.152" y="18.564" color-interpolation-filters="sRGB" filterUnits="userSpaceOnUse"><feFlood flood-opacity="0" result="BackgroundImageFix"/><feColorMatrix in="SourceAlpha" result="hardAlpha" type="matrix" values="0 0 0 0 0 0 0 0 0 0 0 0 0 0 0 0 0 0 127 0"/><feOffset dy="7.916"/><feGaussianBlur stdDeviation="7.256"/><feColorMatrix type="matrix" values="0 0 0 0 0 0 0 0 0 0.0450001 0 0 0 0 0.45 0 0 0 0.25 0"/><feBlend in2="BackgroundImageFix" mode="normal" result="effect1_dropShadow_1053_46645"/><feBlend in="SourceGraphic" in2="effect1_dropShadow_1053_46645" mode="normal" result="shape"/><feColorMatrix in="SourceAlpha" result="hardAlpha" type="matrix" values="0 0 0 0 0 0 0 0 0 0 0 0 0 0 0 0 0 0 127 0"/><feOffset dy="-.5"/><feGaussianBlur stdDeviation="1"/><feComposite in2="hardAlpha" k2="-1" k3="1" operator="arithmetic"/><feColorMatrix type="matrix" values="0 0 0 0 0.338819 0 0 0 0 0.521617 0 0 0 0 0.991667 0 0 0 0.5 0"/><feBlend in2="shape" mode="normal" result="effect2_innerShadow_1053_46645"/></filter><filter id="filter2_di_1053_46645" width="37.349" height="30.74" x="5.152" y="14.989" color-interpolation-filters="sRGB" filterUnits="userSpaceOnUse"><feFlood flood-opacity="0" result="BackgroundImageFix"/><feColorMatrix in="SourceAlpha" result="hardAlpha" type="matrix" values="0 0 0 0 0 0 0 0 0 0 0 0 0 0 0 0 0 0 127 0"/><feOffset dy="7.916"/><feGaussianBlur stdDeviation="7.256"/><feColorMatrix type="matrix" values="0 0 0 0 0 0 0 0 0 0.0450001 0 0 0 0 0.45 0 0 0 0.25 0"/><feBlend in2="BackgroundImageFix" mode="normal" result="effect1_dropShadow_1053_46645"/><feBlend in="SourceGraphic" in2="effect1_dropShadow_1053_46645" mode="normal" result="shape"/><feColorMatrix in="SourceAlpha" result="hardAlpha" type="matrix" values="0 0 0 0 0 0 0 0 0 0 0 0 0 0 0 0 0 0 127 0"/><feOffset dy="-.5"/><feGaussianBlur stdDeviation="1"/><feComposite in2="hardAlpha" k2="-1" k3="1" operator="arithmetic"/><feColorMatrix type="matrix" values="0 0 0 0 0.338819 0 0 0 0 0.521617 0 0 0 0 0.991667 0 0 0 0.5 0"/><feBlend in2="shape" mode="normal" result="effect2_innerShadow_1053_46645"/></filter><filter id="filter3_di_1053_46645" width="45.029" height="34.824" x="5.152" y="22.727" color-interpolation-filters="sRGB" filterUnits="userSpaceOnUse"><feFlood flood-opacity="0" result="BackgroundImageFix"/><feColorMatrix in="SourceAlpha" result="hardAlpha" type="matrix" values="0 0 0 0 0 0 0 0 0 0 0 0 0 0 0 0 0 0 127 0"/><feOffset dy="7.916"/><feGaussianBlur stdDeviation="7.256"/><feColorMatrix type="matrix" values="0 0 0 0 0 0 0 0 0 0.0450001 0 0 0 0 0.45 0 0 0 0.25 0"/><feBlend in2="BackgroundImageFix" mode="normal" result="effect1_dropShadow_1053_46645"/><feBlend in="SourceGraphic" in2="effect1_dropShadow_1053_46645" mode="normal" result="shape"/><feColorMatrix in="SourceAlpha" result="hardAlpha" type="matrix" values="0 0 0 0 0 0 0 0 0 0 0 0 0 0 0 0 0 0 127 0"/><feOffset dy="-2"/><feGaussianBlur stdDeviation="3.298"/><feComposite in2="hardAlpha" k2="-1" k3="1" operator="arithmetic"/><feColorMatrix type="matrix" values="0 0 0 0 0.690196 0 0 0 0 0.776941 0 0 0 0 1 0 0 0 0.6 0"/><feBlend in2="shape" mode="normal" result="effect2_innerShadow_1053_46645"/></filter><filter id="filter4_f_1053_46645" width="47" height="28.997" x="4.667" y="22.989" color-interpolation-filters="sRGB" filterUnits="userSpaceOnUse"><feFlood flood-opacity="0" result="BackgroundImageFix"/><feBlend in="SourceGraphic" in2="BackgroundImageFix" mode="normal" result="shape"/><feGaussianBlur result="effect1_foregroundBlur_1053_46645" stdDeviation="6"/></filter></defs></svg>