<svg xmlns="http://www.w3.org/2000/svg" xmlns:xlink="http://www.w3.org/1999/xlink" id="图层_1" x="0" y="0" version="1.1" viewBox="0 0 22 22" xml:space="preserve" style="enable-background:new 0 0 22 22"><style type="text/css">.st1{fill:none}</style><title>编组 5备份</title><desc>Created with Sketch.</desc><g id="组件页-Web端-_xD83E__xDD1F_"><g id="暗黑模式" transform="translate(2.500000, 2.500000)"><path id="椭圆形" d="M8.5,11.5c1.7,0,3-1.4,3-3s-1.4-3-3-3s-3,1.4-3,3S6.8,11.5,8.5,11.5z" class="st0"/><rect id="矩形" width="2.4" height="2.4" x="7.3" class="st0"/><rect id="矩形备份-2" width="2.4" height="2.4" x="7.3" y="14.6" class="st0"/><polygon id="矩形_1_" points="17 7.3 17 9.7 14.6 9.7 14.6 7.3" class="st0"/><polygon id="矩形备份-2_1_" points="2.4 7.3 2.4 9.7 0 9.7 0 7.3" class="st0"/><polygon id="矩形_2_" points="15.4 13.7 13.7 15.4 11.9 13.7 13.7 11.9" class="st0"/><polygon id="矩形备份-2_2_" points="5.1 3.3 3.3 5.1 1.6 3.3 3.3 1.6" class="st0"/><polygon id="矩形_3_" points="13.7 1.6 15.4 3.3 13.7 5.1 11.9 3.3" class="st0"/><polygon id="矩形备份-2_3_" points="3.3 11.9 5.1 13.7 3.3 15.4 1.6 13.7" class="st0"/></g></g><rect width="22" height="22" x="0" class="st1"/></svg>